<svg xmlns="http://www.w3.org/2000/svg" viewBox="0 0 411.98 246.46"><defs><style>.cls-1{fill:#169dad;}.cls-2{fill:#18878d;}.cls-3{fill:#69bed9;}</style></defs><g id="Calque_2" data-name="Calque 2"><g id="Calque_1-2" data-name="Calque 1"><path class="cls-1" d="M16.13,201.73h9.23L41.49,246H31l-3.43-9.91H13.83L10.47,246H0ZM25.92,229l-5.18-15.64L15.45,229Z"/><path class="cls-1" d="M41.69,223.47a22.27,22.27,0,0,1,1.49-7.94,21.62,21.62,0,0,1,4.36-7.07,22.17,22.17,0,0,1,7-5.05,21.69,21.69,0,0,1,9.34-1.93,21.13,21.13,0,0,1,10.82,2.68,17.31,17.31,0,0,1,6.82,7l-7.85,5.48a9.18,9.18,0,0,0-1.9-2.9,10.29,10.29,0,0,0-2.53-1.87,10.65,10.65,0,0,0-2.8-1,14.32,14.32,0,0,0-2.8-.29,10.51,10.51,0,0,0-5.11,1.19,11.44,11.44,0,0,0-3.62,3.05,12.68,12.68,0,0,0-2.11,4.24,17.09,17.09,0,0,0-.69,4.8,15.79,15.79,0,0,0,.81,5,13.42,13.42,0,0,0,2.33,4.3,11.38,11.38,0,0,0,3.68,3,10.62,10.62,0,0,0,4.83,1.09,12.39,12.39,0,0,0,2.84-.35,11.45,11.45,0,0,0,2.8-1.06A10.16,10.16,0,0,0,71.84,234a8.92,8.92,0,0,0,1.81-2.84L82,236.06a13.13,13.13,0,0,1-3,4.36,18.24,18.24,0,0,1-4.52,3.24,24.59,24.59,0,0,1-11,2.68,19.77,19.77,0,0,1-8.81-2,22.2,22.2,0,0,1-6.92-5.2,24,24,0,0,1-4.49-7.35A23,23,0,0,1,41.69,223.47Z"/><path class="cls-1" d="M97.33,220.67V246H87.11V201.73h8l20.63,26v-26h10.21V246H117.7Z"/><path class="cls-1" d="M146.36,223.47a22.29,22.29,0,0,1,1.5-7.94,21.29,21.29,0,0,1,4.36-7.07,22.12,22.12,0,0,1,7-5.05,21.74,21.74,0,0,1,9.35-1.93,21.09,21.09,0,0,1,10.81,2.68,17.25,17.25,0,0,1,6.82,7l-7.85,5.48a9.18,9.18,0,0,0-1.9-2.9,10.43,10.43,0,0,0-2.52-1.87,10.59,10.59,0,0,0-2.81-1,14.32,14.32,0,0,0-2.8-.29,10.54,10.54,0,0,0-5.11,1.19,11.29,11.29,0,0,0-3.61,3.05,12.7,12.7,0,0,0-2.12,4.24,17.09,17.09,0,0,0-.69,4.8,15.52,15.52,0,0,0,.82,5,13,13,0,0,0,2.33,4.3,11.35,11.35,0,0,0,3.67,3,10.67,10.67,0,0,0,4.84,1.09,12.37,12.37,0,0,0,2.83-.35,11.67,11.67,0,0,0,2.81-1.06,10.11,10.11,0,0,0,2.45-1.86,8.75,8.75,0,0,0,1.81-2.84l8.35,4.92a12.84,12.84,0,0,1-3,4.36,18.18,18.18,0,0,1-4.51,3.24,24.68,24.68,0,0,1-5.43,2,24.41,24.41,0,0,1-5.6.68,19.81,19.81,0,0,1-8.82-2,22.43,22.43,0,0,1-6.92-5.2,24,24,0,0,1-4.48-7.35A23,23,0,0,1,146.36,223.47Z"/><path class="cls-1" d="M210.72,246.34a20.54,20.54,0,0,1-9-1.93,22.13,22.13,0,0,1-6.92-5.08,23,23,0,0,1-4.45-7.2,22.61,22.61,0,0,1-1.59-8.35,22,22,0,0,1,1.65-8.4,22.27,22.27,0,0,1,11.62-12.06,21.09,21.09,0,0,1,8.85-1.84,20.54,20.54,0,0,1,9,1.93,21.9,21.9,0,0,1,6.92,5.11,23.11,23.11,0,0,1,4.42,7.23,22.7,22.7,0,0,1,1.56,8.22,22,22,0,0,1-1.65,8.41,22.35,22.35,0,0,1-11.56,12.09A20.8,20.8,0,0,1,210.72,246.34ZM199.2,223.91a16.44,16.44,0,0,0,.74,5,13.15,13.15,0,0,0,2.22,4.27,10.66,10.66,0,0,0,8.62,4.12,10.54,10.54,0,0,0,5.11-1.19,11.17,11.17,0,0,0,3.62-3.08,13.67,13.67,0,0,0,2.15-4.3,16.94,16.94,0,0,0,.71-4.9,16.49,16.49,0,0,0-.74-4.95,12.46,12.46,0,0,0-2.25-4.23,11.09,11.09,0,0,0-3.64-2.94,10.91,10.91,0,0,0-5-1.09,10.54,10.54,0,0,0-5.07,1.16,11.42,11.42,0,0,0-3.62,3,13,13,0,0,0-2.18,4.27A16.92,16.92,0,0,0,199.2,223.91Z"/><path class="cls-1" d="M248.92,220.67V246H238.7V201.73h8l20.63,26v-26h10.22V246h-8.23Z"/><path class="cls-1" d="M312.53,214.69a6,6,0,0,0-1.31-.94,25.51,25.51,0,0,0-2.8-1.43,27.73,27.73,0,0,0-3.68-1.31,14.82,14.82,0,0,0-4-.56q-5.49,0-5.49,3.68a3,3,0,0,0,.59,1.87,5.35,5.35,0,0,0,1.75,1.34,17,17,0,0,0,2.9,1.09l4,1.12a54.39,54.39,0,0,1,5.74,1.9,15.82,15.82,0,0,1,4.33,2.55,10.53,10.53,0,0,1,2.74,3.71,12.77,12.77,0,0,1,1,5.24,13.15,13.15,0,0,1-1.4,6.32,11.9,11.9,0,0,1-3.72,4.17,15.65,15.65,0,0,1-5.29,2.31,26.24,26.24,0,0,1-6.17.71,34.19,34.19,0,0,1-5-.37,35.7,35.7,0,0,1-5-1.09,41,41,0,0,1-4.7-1.71,25.38,25.38,0,0,1-4.21-2.31l4.49-8.91a8.4,8.4,0,0,0,1.62,1.19,24.55,24.55,0,0,0,3.39,1.74,35.5,35.5,0,0,0,4.52,1.56,18.86,18.86,0,0,0,5.05.69q5.42,0,5.42-3.31a2.76,2.76,0,0,0-.81-2.05,7.76,7.76,0,0,0-2.24-1.47,23.62,23.62,0,0,0-3.4-1.21L296.64,228a36.66,36.66,0,0,1-5.3-2,13.82,13.82,0,0,1-3.7-2.52,9,9,0,0,1-2.18-3.3,12.07,12.07,0,0,1-.72-4.36,13.93,13.93,0,0,1,1.31-6.17,13.34,13.34,0,0,1,3.55-4.52,15.55,15.55,0,0,1,5.2-2.77,20.81,20.81,0,0,1,6.27-.93,23.76,23.76,0,0,1,4.54.43,35.11,35.11,0,0,1,4.3,1.12,31.36,31.36,0,0,1,3.84,1.56c1.18.58,2.27,1.17,3.27,1.74Z"/><path class="cls-1" d="M355.4,237v9H324.31V201.73h30.53v9H334.53v8.6H352v8.29H334.53V237Z"/><path class="cls-1" d="M361.63,246V201.73h10.22V246Z"/><path class="cls-1" d="M380.32,246V201.73h10.22V237H412v9Z"/><path class="cls-2" d="M72.56,94.66a428.49,428.49,0,0,0,61.68,21c73.23,18.78,114,8.26,153.35,39a118.68,118.68,0,0,1,27,30,331.2,331.2,0,0,0-44.49-14.32c-80.13-19.64-122.77,2-162-25.52C97.11,137.06,82.67,122.85,72.56,94.66Z"/><path class="cls-1" d="M102.54,43.26a499.76,499.76,0,0,0,81,28.7c47.08,12.2,73.42,11.5,97.66,33,16.91,15,25,33.84,29.13,47.55a210.39,210.39,0,0,0-39.44-22.34C203.24,101,154.68,123.29,123.1,92.09,115.56,84.64,105.43,70.63,102.54,43.26Z"/><path class="cls-3" d="M171.08,0a111.79,111.79,0,0,0,25.27,18.85c12.62,6.85,20.19,7.71,32.13,11.56,14.5,4.68,43.38,14,60,36.84,4.81,6.62,12.05,19.15,13.71,39.41A181,181,0,0,0,273.88,86.1C232.47,61.72,204.78,68,185.72,46.35,179,38.69,171.15,25.12,171.08,0Z"/></g></g></svg>