<?xml version="1.0" encoding="utf-8"?>
<!-- Generator: Adobe Illustrator 23.0.2, SVG Export Plug-In . SVG Version: 6.00 Build 0)  -->
<svg version="1.1" id="Layer_1" xmlns="http://www.w3.org/2000/svg" xmlns:xlink="http://www.w3.org/1999/xlink" x="0px" y="0px"
	 viewBox="0 0 157.4963 229.1838" enable-background="new 0 0 157.4963 229.1838" xml:space="preserve">
<g>
	<path d="M78.6701,44.4084c12.0997,2.8184,24.1915-4.707,27.0098-16.8066c2.8164-12.0996-4.709-24.1934-16.8066-27.0108
		C76.7737-2.2263,64.6799,5.299,61.8616,17.3987C59.0432,29.4983,66.5686,41.592,78.6701,44.4084z"/>
	<path d="M0.0217,97.0852c0.2686,3.666,2.9668,6.5722,6.4043,7.2607V88.6648C2.5256,89.4441-0.2761,93.0168,0.0217,97.0852z"/>
	<path d="M23.2229,30.092L18.2971,2.5178H8.428L3.4973,30.092l4.9307,9.7149V88.424v16.0625v39.1426H0.0471v7.6641l2.9541,1.7715
		v9.4316H0.0471v59.8516c0,0,0,5.8965,13.3145,5.8965c13.3183,0,13.3183-5.8965,13.3183-5.8965v-59.8516H23.718v-9.4316
		l2.9619-1.7715v-7.6641h-8.3828v-40.4463v-16.373V39.8069L23.2229,30.092z"/>
	<path d="M142.6936,121.4475c-1.4199-31.1026-8.6211-48.4248-17.1221-58.3281c-4.3838-5.0962-9.0889-8.0093-12.9287-9.5157
		c-3.7129-1.4672-6.5547-1.665-7.7236-1.6767c-0.5889-0.1436-1.1992-0.2276-1.8311-0.2276H64.4534
		c-2.4688,0-4.6612,1.1602-6.0762,2.9605c-0.6758,0.6675-1.2481,1.4609-1.6651,2.3769c-0.0009,0.0025-0.0029,0.0054-0.0048,0.0093
		v0.0025c0,0,0-0.0015,0-0.002l0.0009,0.0005c-0.2568,0.5571-3.8916,7.9214-11.6748,15.2476
		c-5.8398,5.476-13.83,10.9526-24.7343,13.998v16.4927c16.3574-3.5987,28.3867-11.7124,36.4257-19.5391v23.8926
		c-0.081,0.5713-0.1367,1.1494-0.1367,1.7422v107.9394c0,6.8282,5.5371,12.3633,12.3633,12.3633
		c6.8281,0,12.3652-5.5351,12.3652-12.3633v-81.2734h4.7715v81.2734c0,6.8282,5.5371,12.3633,12.3633,12.3633
		c6.8281,0,12.3652-5.5351,12.3652-12.3633v-89v-18.9394V70.9646c1.1348,0.9536,2.377,2.2143,3.6817,3.8867
		c4.997,6.479,10.8974,20.0166,12.1816,46.7007c-0.3203,0.2705-0.6328,0.5595-0.9414,0.8603
		c-2.9033,1.6524-5.4238,4.3887-7.4121,7.8028c-3.3281,5.7168-5.3242,13.4492-5.3291,21.9707
		c0.0049,8.5195,2.001,16.2529,5.3291,21.9677c0.0684,0.1172,0.1406,0.2286,0.21,0.3438c0.6572,1.9443,1.4091,3.7656,2.247,5.4336
		c3.2813,6.5117,7.9961,10.9639,13.7139,11.0058c5.7178-0.0419,10.4326-4.4941,13.7148-11.0058
		c0.1827-0.3623,0.3448-0.7569,0.5186-1.1328c1.2695-1.3369,2.4238-2.9024,3.4375-4.6446
		c3.3271-5.7148,5.3242-13.4482,5.3281-21.9677c-0.0039-8.5215-2.001-16.2539-5.3281-21.9707
		C149.7229,126.0149,146.4739,122.8332,142.6936,121.4475z M140.4338,180.466c1.9961-1.623,3.7608-3.7822,5.2344-6.3125
		c2.0537-3.5273,3.5957-7.8261,4.4805-12.6015c-0.6094,5.8896-1.9903,11.2002-3.8868,15.4746
		C144.4543,178.842,142.4758,180.0139,140.4338,180.466z M121.2717,173.217c-1.7422-5.2881-2.7773-11.667-2.7734-18.5312
		c-0.0059-9.3907,1.9277-17.8828,4.9638-23.8975c1.0303-2.0469,2.1739-3.7744,3.3877-5.1738
		c0.0244,0.4697,0.084,0.9297,0.1856,1.373c-0.792,0.9893-1.5322,2.0674-2.207,3.2276c-3.3301,5.7168-5.3272,13.4492-5.3311,21.9707
		c0.0039,8.5195,2.001,16.2529,5.3311,21.9677c1.4726,2.5303,3.2373,4.6895,5.2333,6.3125
		C126.8293,179.7502,123.7561,177.2297,121.2717,173.217z M127.4182,172.6418c-3.0059-5.1416-4.9258-12.4092-4.9219-20.456
		c-0.0039-8.0479,1.916-15.3155,4.9219-20.458c0.3457-0.5899,0.7051-1.1465,1.0732-1.6768c1.4659,1.9072,3.7627,3.1338,6.334,3.1348
		c0.083,0,0.1651-0.002,0.2471-0.0039c2.7519-0.084,5.1367-1.5489,6.5117-3.709c0.5176,0.6963,1.0176,1.4433,1.4912,2.2549
		c3.0059,5.1425,4.9258,12.4101,4.9219,20.458c0.0039,8.0468-1.916,15.3144-4.9219,20.456
		c-2.2099,3.7832-4.9306,6.336-7.8271,7.4317C132.3498,178.9778,129.6311,176.425,127.4182,172.6418z M134.4973,187.9338
		c-3.2119,0.0342-6.4824-2.164-9.2334-6.2519c2.0586,1.2744,4.3203,1.997,6.7344,2.0039c1.1172-0.003,2.2011-0.166,3.25-0.46
		c1.0478,0.294,2.1318,0.457,3.25,0.46c1.5293-0.0049,2.9961-0.3047,4.3906-0.8418
		C140.3244,186.1799,137.3889,187.9651,134.4973,187.9338z M152.7092,165.1262c0.5117-3.3076,0.7871-6.8096,0.7891-10.4404
		c-0.0039-9.5352-1.8926-18.1836-5.0303-24.6885c0.3818,0.5459,0.7529,1.1211,1.1084,1.7305
		c3.0039,5.1425,4.9248,12.4101,4.9199,20.458C154.4992,156.8547,153.8381,161.2444,152.7092,165.1262z"/>
</g>
</svg>
